<svg xmlns="http://www.w3.org/2000/svg" xmlns:xlink="http://www.w3.org/1999/xlink" width="500" zoomAndPan="magnify" viewBox="0 0 375 374.999991" height="500" preserveAspectRatio="xMidYMid meet" version="1.0"><defs><clipPath id="f935959d55"><path d="M 19.023438 37.5 L 166.773438 37.5 L 166.773438 185.25 L 19.023438 185.25 Z M 19.023438 37.5 " clip-rule="nonzero"/></clipPath><clipPath id="637feb46c8"><path d="M 207.871094 37.5 L 355.621094 37.5 L 355.621094 185.25 L 207.871094 185.25 Z M 207.871094 37.5 " clip-rule="nonzero"/></clipPath><clipPath id="12929390ee"><path d="M 19.023438 202.273438 L 166.773438 202.273438 L 166.773438 350.023438 L 19.023438 350.023438 Z M 19.023438 202.273438 " clip-rule="nonzero"/></clipPath><clipPath id="6b5927641c"><path d="M 207.871094 202.273438 L 355.621094 202.273438 L 355.621094 350.023438 L 207.871094 350.023438 Z M 207.871094 202.273438 " clip-rule="nonzero"/></clipPath></defs><g clip-path="url(#f935959d55)"><path fill="#7ed957" d="M 93.074219 37.5 C 94.285156 37.5 95.496094 37.53125 96.707031 37.589844 C 97.917969 37.648438 99.125 37.738281 100.332031 37.855469 C 101.535156 37.976562 102.738281 38.125 103.9375 38.300781 C 105.136719 38.480469 106.332031 38.6875 107.519531 38.921875 C 108.707031 39.160156 109.890625 39.425781 111.066406 39.71875 C 112.242188 40.015625 113.410156 40.335938 114.570312 40.6875 C 115.726562 41.039062 116.878906 41.421875 118.019531 41.828125 C 119.160156 42.238281 120.292969 42.671875 121.410156 43.136719 C 122.53125 43.601562 123.636719 44.089844 124.734375 44.609375 C 125.828125 45.128906 126.910156 45.671875 127.980469 46.242188 C 129.046875 46.816406 130.101562 47.414062 131.140625 48.035156 C 132.183594 48.660156 133.207031 49.304688 134.214844 49.980469 C 135.222656 50.652344 136.210938 51.351562 137.183594 52.074219 C 138.15625 52.792969 139.113281 53.539062 140.050781 54.308594 C 140.988281 55.078125 141.902344 55.867188 142.800781 56.683594 C 143.699219 57.496094 144.578125 58.332031 145.433594 59.1875 C 146.292969 60.046875 147.125 60.921875 147.941406 61.820312 C 148.753906 62.71875 149.546875 63.636719 150.316406 64.574219 C 151.082031 65.511719 151.828125 66.464844 152.550781 67.4375 C 153.273438 68.414062 153.96875 69.402344 154.644531 70.410156 C 155.316406 71.417969 155.964844 72.441406 156.589844 73.480469 C 157.210938 74.519531 157.808594 75.574219 158.378906 76.644531 C 158.949219 77.710938 159.496094 78.792969 160.015625 79.890625 C 160.53125 80.984375 161.023438 82.09375 161.488281 83.210938 C 161.949219 84.332031 162.386719 85.460938 162.792969 86.605469 C 163.203125 87.746094 163.582031 88.894531 163.933594 90.054688 C 164.285156 91.214844 164.609375 92.382812 164.90625 93.558594 C 165.199219 94.734375 165.464844 95.914062 165.699219 97.105469 C 165.9375 98.292969 166.144531 99.488281 166.320312 100.683594 C 166.5 101.882812 166.648438 103.085938 166.765625 104.292969 C 166.886719 105.5 166.976562 106.707031 167.035156 107.917969 C 167.09375 109.128906 167.125 110.339844 167.125 111.550781 C 167.125 112.761719 167.09375 113.972656 167.035156 115.183594 C 166.976562 116.394531 166.886719 117.601562 166.765625 118.808594 C 166.648438 120.015625 166.5 121.21875 166.320312 122.417969 C 166.144531 123.613281 165.9375 124.808594 165.699219 125.996094 C 165.464844 127.1875 165.199219 128.367188 164.90625 129.542969 C 164.609375 130.71875 164.285156 131.886719 163.933594 133.046875 C 163.582031 134.207031 163.203125 135.355469 162.792969 136.496094 C 162.386719 137.640625 161.949219 138.769531 161.488281 139.890625 C 161.023438 141.007812 160.53125 142.117188 160.015625 143.210938 C 159.496094 144.308594 158.949219 145.390625 158.378906 146.457031 C 157.808594 147.527344 157.210938 148.582031 156.589844 149.621094 C 155.964844 150.660156 155.316406 151.683594 154.644531 152.691406 C 153.96875 153.699219 153.273438 154.6875 152.550781 155.664062 C 151.828125 156.636719 151.082031 157.589844 150.316406 158.527344 C 149.546875 159.464844 148.753906 160.382812 147.941406 161.28125 C 147.125 162.179688 146.292969 163.054688 145.433594 163.914062 C 144.578125 164.769531 143.699219 165.605469 142.800781 166.417969 C 141.902344 167.234375 140.988281 168.023438 140.050781 168.792969 C 139.113281 169.5625 138.15625 170.308594 137.183594 171.027344 C 136.210938 171.75 135.222656 172.449219 134.214844 173.121094 C 133.207031 173.796875 132.183594 174.441406 131.140625 175.066406 C 130.101562 175.6875 129.046875 176.285156 127.980469 176.859375 C 126.910156 177.429688 125.828125 177.972656 124.734375 178.492188 C 123.636719 179.011719 122.53125 179.5 121.410156 179.964844 C 120.292969 180.429688 119.160156 180.863281 118.019531 181.273438 C 116.878906 181.679688 115.726562 182.0625 114.570312 182.414062 C 113.410156 182.765625 112.242188 183.085938 111.066406 183.382812 C 109.890625 183.675781 108.707031 183.941406 107.519531 184.179688 C 106.332031 184.414062 105.136719 184.621094 103.9375 184.800781 C 102.738281 184.976562 101.535156 185.125 100.332031 185.246094 C 99.125 185.363281 97.917969 185.453125 96.707031 185.511719 C 95.496094 185.570312 94.285156 185.601562 93.074219 185.601562 C 91.859375 185.601562 90.648438 185.570312 89.4375 185.511719 C 88.230469 185.453125 87.019531 185.363281 85.816406 185.246094 C 84.609375 185.125 83.40625 184.976562 82.207031 184.800781 C 81.007812 184.621094 79.816406 184.414062 78.625 184.179688 C 77.4375 183.941406 76.253906 183.675781 75.078125 183.382812 C 73.902344 183.085938 72.738281 182.765625 71.578125 182.414062 C 70.417969 182.0625 69.265625 181.679688 68.125 181.273438 C 66.984375 180.863281 65.855469 180.429688 64.734375 179.964844 C 63.613281 179.5 62.507812 179.011719 61.410156 178.492188 C 60.316406 177.972656 59.234375 177.429688 58.164062 176.859375 C 57.097656 176.285156 56.042969 175.6875 55.003906 175.066406 C 53.964844 174.441406 52.941406 173.796875 51.933594 173.121094 C 50.925781 172.449219 49.933594 171.75 48.960938 171.027344 C 47.988281 170.308594 47.03125 169.5625 46.09375 168.792969 C 45.160156 168.023438 44.242188 167.234375 43.34375 166.417969 C 42.445312 165.605469 41.566406 164.769531 40.710938 163.914062 C 39.855469 163.054688 39.019531 162.179688 38.203125 161.28125 C 37.390625 160.382812 36.597656 159.464844 35.832031 158.527344 C 35.0625 157.589844 34.316406 156.636719 33.59375 155.664062 C 32.871094 154.6875 32.175781 153.699219 31.5 152.691406 C 30.828125 151.683594 30.179688 150.660156 29.558594 149.621094 C 28.933594 148.582031 28.335938 147.527344 27.765625 146.457031 C 27.195312 145.390625 26.648438 144.308594 26.132812 143.210938 C 25.613281 142.117188 25.121094 141.007812 24.660156 139.890625 C 24.195312 138.769531 23.757812 137.640625 23.351562 136.496094 C 22.941406 135.355469 22.5625 134.207031 22.210938 133.046875 C 21.859375 131.886719 21.535156 130.71875 21.242188 129.542969 C 20.945312 128.367188 20.679688 127.1875 20.445312 125.996094 C 20.207031 124.808594 20 123.613281 19.824219 122.417969 C 19.644531 121.21875 19.496094 120.015625 19.378906 118.808594 C 19.257812 117.601562 19.171875 116.394531 19.109375 115.183594 C 19.050781 113.972656 19.023438 112.761719 19.023438 111.550781 C 19.023438 110.339844 19.050781 109.128906 19.109375 107.917969 C 19.171875 106.707031 19.257812 105.5 19.378906 104.292969 C 19.496094 103.085938 19.644531 101.882812 19.824219 100.683594 C 20 99.488281 20.207031 98.292969 20.445312 97.105469 C 20.679688 95.914062 20.945312 94.734375 21.242188 93.558594 C 21.535156 92.382812 21.859375 91.214844 22.210938 90.054688 C 22.5625 88.894531 22.941406 87.746094 23.351562 86.605469 C 23.757812 85.460938 24.195312 84.332031 24.660156 83.210938 C 25.121094 82.09375 25.613281 80.984375 26.132812 79.890625 C 26.648438 78.792969 27.195312 77.710938 27.765625 76.644531 C 28.335938 75.574219 28.933594 74.519531 29.558594 73.480469 C 30.179688 72.441406 30.828125 71.417969 31.5 70.410156 C 32.175781 69.402344 32.871094 68.414062 33.59375 67.4375 C 34.316406 66.464844 35.0625 65.511719 35.832031 64.574219 C 36.597656 63.636719 37.390625 62.71875 38.203125 61.820312 C 39.019531 60.921875 39.855469 60.046875 40.710938 59.1875 C 41.566406 58.332031 42.445312 57.496094 43.34375 56.683594 C 44.242188 55.867188 45.160156 55.078125 46.09375 54.308594 C 47.03125 53.539062 47.988281 52.792969 48.960938 52.074219 C 49.933594 51.351562 50.925781 50.652344 51.933594 49.980469 C 52.941406 49.304688 53.964844 48.660156 55.003906 48.035156 C 56.042969 47.414062 57.097656 46.816406 58.164062 46.242188 C 59.234375 45.671875 60.316406 45.128906 61.410156 44.609375 C 62.507812 44.089844 63.613281 43.601562 64.734375 43.136719 C 65.855469 42.671875 66.984375 42.238281 68.125 41.828125 C 69.265625 41.421875 70.417969 41.039062 71.578125 40.6875 C 72.738281 40.335938 73.902344 40.015625 75.078125 39.71875 C 76.253906 39.425781 77.4375 39.160156 78.625 38.921875 C 79.816406 38.6875 81.007812 38.480469 82.207031 38.300781 C 83.40625 38.125 84.609375 37.976562 85.816406 37.855469 C 87.019531 37.738281 88.230469 37.648438 89.4375 37.589844 C 90.648438 37.53125 91.859375 37.5 93.074219 37.5 Z M 125.722656 131.753906 C 125.808594 128.109375 125.21875 124.578125 123.957031 121.160156 C 122.832031 118.132812 121.066406 115.542969 118.660156 113.386719 C 115.949219 111.027344 112.910156 109.214844 109.546875 107.945312 C 105.300781 106.324219 100.945312 105.101562 96.476562 104.273438 L 96.476562 74.605469 C 98.0625 74.75 99.574219 75.171875 101.007812 75.863281 C 102.441406 76.554688 103.710938 77.476562 104.8125 78.628906 C 105.875 79.785156 106.675781 81.097656 107.210938 82.570312 C 107.472656 83.269531 107.832031 83.910156 108.289062 84.5 C 108.746094 85.085938 109.277344 85.59375 109.890625 86.015625 C 110.5 86.441406 111.164062 86.765625 111.875 86.988281 C 112.582031 87.210938 113.3125 87.320312 114.054688 87.320312 L 114.207031 87.320312 C 114.511719 87.320312 114.8125 87.300781 115.117188 87.261719 C 115.417969 87.226562 115.714844 87.167969 116.011719 87.09375 C 116.304688 87.015625 116.597656 86.921875 116.878906 86.8125 C 117.164062 86.699219 117.4375 86.570312 117.707031 86.425781 C 117.972656 86.277344 118.230469 86.117188 118.476562 85.9375 C 118.722656 85.761719 118.957031 85.566406 119.183594 85.359375 C 119.40625 85.152344 119.613281 84.929688 119.808594 84.699219 C 120.003906 84.464844 120.183594 84.21875 120.347656 83.960938 C 120.515625 83.707031 120.664062 83.441406 120.792969 83.164062 C 120.925781 82.890625 121.039062 82.609375 121.136719 82.320312 C 121.230469 82.03125 121.308594 81.738281 121.371094 81.4375 C 121.429688 81.140625 121.46875 80.839844 121.492188 80.535156 C 121.511719 80.230469 121.515625 79.925781 121.5 79.621094 C 121.484375 79.320312 121.449219 79.015625 121.394531 78.714844 C 121.339844 78.417969 121.269531 78.121094 121.179688 77.832031 C 121.089844 77.539062 120.980469 77.253906 120.851562 76.980469 C 119.59375 74.148438 117.828125 71.6875 115.550781 69.585938 C 111.027344 65.398438 104.671875 62.972656 96.476562 62.3125 L 96.476562 55.636719 C 96.476562 55.152344 96.382812 54.691406 96.199219 54.246094 C 96.015625 53.796875 95.753906 53.40625 95.410156 53.0625 C 95.070312 52.722656 94.675781 52.460938 94.230469 52.273438 C 93.785156 52.089844 93.324219 51.996094 92.839844 51.996094 L 92.765625 51.996094 C 92.285156 51.996094 91.820312 52.089844 91.375 52.273438 C 90.929688 52.460938 90.535156 52.722656 90.195312 53.0625 C 89.851562 53.40625 89.589844 53.796875 89.40625 54.242188 C 89.222656 54.691406 89.128906 55.152344 89.128906 55.636719 L 89.128906 62.3125 C 85.105469 62.566406 81.21875 63.4375 77.472656 64.925781 C 74.175781 66.191406 71.253906 68.054688 68.714844 70.507812 C 66.269531 72.859375 64.433594 75.613281 63.203125 78.773438 C 61.878906 82.179688 61.242188 85.714844 61.296875 89.371094 C 61.222656 92.894531 61.859375 96.285156 63.203125 99.542969 C 64.484375 102.488281 66.320312 105.03125 68.714844 107.171875 C 71.328125 109.476562 74.25 111.289062 77.472656 112.613281 C 81.242188 114.171875 85.128906 115.351562 89.128906 116.144531 L 89.128906 148.78125 C 81.765625 147.636719 77.109375 143.601562 75.152344 136.679688 C 74.929688 135.90625 74.589844 135.1875 74.132812 134.527344 C 73.675781 133.867188 73.125 133.292969 72.480469 132.8125 C 71.835938 132.328125 71.132812 131.960938 70.371094 131.707031 C 69.605469 131.453125 68.820312 131.328125 68.019531 131.332031 L 67.863281 131.332031 C 67.574219 131.332031 67.285156 131.351562 67 131.382812 C 66.710938 131.417969 66.425781 131.46875 66.144531 131.535156 C 65.863281 131.601562 65.585938 131.683594 65.316406 131.785156 C 65.042969 131.882812 64.777344 131.996094 64.519531 132.128906 C 64.261719 132.257812 64.011719 132.402344 63.769531 132.5625 C 63.527344 132.722656 63.296875 132.894531 63.074219 133.082031 C 62.851562 133.265625 62.644531 133.464844 62.445312 133.675781 C 62.246094 133.886719 62.0625 134.109375 61.890625 134.34375 C 61.71875 134.574219 61.558594 134.816406 61.414062 135.066406 C 61.269531 135.320312 61.140625 135.578125 61.027344 135.84375 C 60.914062 136.109375 60.816406 136.382812 60.734375 136.660156 C 60.652344 136.9375 60.585938 137.21875 60.535156 137.503906 C 60.488281 137.789062 60.453125 138.074219 60.4375 138.363281 C 60.421875 138.652344 60.425781 138.941406 60.441406 139.230469 C 60.460938 139.519531 60.496094 139.808594 60.546875 140.09375 C 60.597656 140.375 60.664062 140.65625 60.75 140.933594 C 61.371094 143.144531 62.269531 145.238281 63.4375 147.214844 C 64.609375 149.191406 66.011719 150.984375 67.652344 152.59375 C 72.691406 157.351562 79.851562 160.128906 89.128906 160.929688 L 89.128906 167.46875 C 89.128906 167.949219 89.222656 168.414062 89.40625 168.859375 C 89.589844 169.304688 89.851562 169.699219 90.195312 170.039062 C 90.535156 170.378906 90.929688 170.644531 91.375 170.828125 C 91.820312 171.011719 92.285156 171.105469 92.765625 171.105469 L 92.839844 171.105469 C 93.324219 171.105469 93.785156 171.011719 94.230469 170.828125 C 94.675781 170.644531 95.070312 170.378906 95.410156 170.039062 C 95.753906 169.699219 96.015625 169.304688 96.199219 168.859375 C 96.382812 168.414062 96.476562 167.949219 96.476562 167.46875 L 96.476562 160.789062 C 100.734375 160.675781 104.832031 159.804688 108.769531 158.175781 C 112.253906 156.726562 115.316406 154.65625 117.953125 151.960938 C 120.515625 149.351562 122.449219 146.335938 123.746094 142.917969 C 125.089844 139.316406 125.75 135.597656 125.722656 131.753906 Z M 125.722656 131.753906 " fill-opacity="1" fill-rule="nonzero"/></g><path fill="#7ed957" d="M 109.6875 127.304688 C 110.191406 128.988281 110.425781 130.707031 110.394531 132.460938 C 110.394531 142.351562 105.753906 147.792969 96.476562 148.78125 L 96.476562 117.835938 C 98.75 118.410156 100.941406 119.210938 103.046875 120.238281 C 104.671875 121.011719 106.109375 122.046875 107.355469 123.347656 C 108.445312 124.480469 109.222656 125.800781 109.6875 127.304688 Z M 109.6875 127.304688 " fill-opacity="1" fill-rule="nonzero"/><path fill="#7ed957" d="M 89.128906 74.460938 L 89.128906 102.507812 C 87.386719 102.027344 85.695312 101.414062 84.046875 100.671875 C 82.5625 100.019531 81.242188 99.121094 80.085938 97.988281 C 78.972656 96.867188 78.125 95.570312 77.546875 94.101562 C 76.890625 92.324219 76.582031 90.484375 76.625 88.589844 C 76.625 80.585938 80.792969 75.875 89.128906 74.460938 Z M 89.128906 74.460938 " fill-opacity="1" fill-rule="nonzero"/><g clip-path="url(#637feb46c8)"><path fill="#8c52ff" d="M 281.921875 37.5 C 241.023438 37.5 207.871094 70.652344 207.871094 111.550781 C 207.871094 152.449219 241.023438 185.601562 281.921875 185.601562 C 322.820312 185.601562 355.972656 152.449219 355.972656 111.550781 C 355.972656 70.652344 322.820312 37.5 281.921875 37.5 Z M 311.542969 149.851562 L 252.300781 149.851562 L 252.300781 136.328125 L 257.609375 136.328125 C 258.5 136.113281 259.210938 135.660156 259.730469 134.980469 C 260.246094 134.3125 260.648438 133.523438 260.921875 132.597656 C 261.210938 131.683594 261.394531 130.671875 261.484375 129.574219 C 261.585938 128.480469 261.625 127.375 261.625 126.292969 L 261.335938 117.542969 L 252.300781 117.542969 L 252.300781 104.144531 L 260.882812 104.144531 L 260.5 91.578125 C 260.5 87.722656 261.113281 84.277344 262.34375 81.226562 C 263.578125 78.175781 265.304688 75.613281 267.535156 73.546875 C 269.761719 71.46875 272.421875 69.875 275.53125 68.773438 C 278.632812 67.667969 282.070312 67.121094 285.824219 67.121094 C 289.882812 67.121094 293.472656 67.683594 296.613281 68.800781 C 299.761719 69.925781 302.410156 71.519531 304.566406 73.578125 C 306.722656 75.628906 308.363281 78.085938 309.46875 80.953125 C 310.460938 83.464844 310.925781 86.300781 311.046875 89.335938 L 295.050781 89.335938 C 294.960938 88.03125 294.777344 86.847656 294.390625 85.878906 C 293.886719 84.617188 293.214844 83.617188 292.363281 82.855469 C 291.496094 82.085938 290.503906 81.523438 289.371094 81.191406 C 288.238281 80.855469 287.039062 80.6875 285.773438 80.6875 C 283.3125 80.6875 281.285156 81.613281 279.664062 83.433594 C 278.046875 85.269531 277.25 87.972656 277.25 91.578125 L 277.746094 104.144531 L 296.730469 104.144531 L 296.730469 117.542969 L 278.234375 117.542969 L 278.582031 125.339844 C 278.582031 127.582031 278.308594 129.605469 277.761719 131.425781 C 277.226562 133.234375 276.351562 134.871094 275.117188 136.328125 L 311.542969 136.328125 Z M 311.542969 149.851562 " fill-opacity="1" fill-rule="nonzero"/></g><g clip-path="url(#12929390ee)"><path fill="#ffde59" d="M 93.074219 202.273438 C 52.179688 202.273438 19.023438 235.429688 19.023438 276.324219 C 19.023438 317.21875 52.179688 350.375 93.074219 350.375 C 133.96875 350.375 167.125 317.21875 167.125 276.324219 C 167.125 235.429688 133.96875 202.273438 93.074219 202.273438 Z M 113.285156 239.296875 L 125.625 239.296875 L 125.625 249.265625 C 133.957031 251.128906 139.515625 256.804688 139.789062 264.476562 L 129.398438 264.476562 C 128.886719 260.304688 125.003906 257.523438 119.660156 257.523438 C 114.132812 257.523438 110.464844 260.085938 110.464844 264.113281 C 110.464844 267.375 112.988281 269.25 119.179688 270.5625 L 125.554688 271.914062 C 136.175781 274.148438 140.742188 278.734375 140.742188 286.929688 C 140.742188 295.753906 135.082031 301.671875 125.625 303.464844 L 125.625 313.347656 L 113.285156 313.347656 L 113.285156 303.492188 C 104.207031 301.789062 98.492188 296.214844 98.160156 288.0625 L 108.847656 288.0625 C 109.363281 292.347656 113.6875 295.089844 119.914062 295.089844 C 125.660156 295.089844 129.722656 292.308594 129.722656 288.316406 C 129.722656 284.945312 127.09375 283.007812 120.613281 281.613281 L 113.730469 280.144531 C 104.105469 278.132812 99.375 273.121094 99.375 265.066406 C 99.375 256.964844 104.738281 251.191406 113.285156 249.289062 Z M 45.40625 249.808594 L 67.664062 249.808594 C 79.308594 249.808594 86.480469 256.28125 86.480469 266.828125 C 86.480469 273.589844 82.945312 279.46875 76.851562 281.890625 L 88.023438 302.839844 L 75.453125 302.839844 L 65.570312 283.617188 L 56.492188 283.617188 L 56.492188 302.839844 L 45.40625 302.839844 Z M 56.492188 258.777344 L 56.492188 275.09375 L 66.230469 275.09375 C 71.816406 275.09375 75.089844 272.082031 75.089844 266.972656 C 75.089844 261.9375 71.632812 258.777344 66.125 258.777344 Z M 56.492188 258.777344 " fill-opacity="1" fill-rule="nonzero"/></g><g clip-path="url(#6b5927641c)"><path fill="#004aad" d="M 308.996094 258.839844 L 305.519531 272.828125 L 252.472656 272.828125 C 252.359375 273.976562 252.300781 275.144531 252.300781 276.324219 C 252.300781 277.503906 252.359375 278.671875 252.472656 279.820312 L 303.703125 279.820312 L 300.304688 293.808594 L 256.992188 293.808594 C 263.050781 304.253906 274.351562 311.292969 287.269531 311.292969 C 296.609375 311.292969 305.390625 307.65625 311.996094 301.050781 L 321.886719 310.941406 C 317.390625 315.433594 312.15625 318.964844 306.328125 321.429688 C 300.285156 323.984375 293.875 325.28125 287.269531 325.28125 C 280.664062 325.28125 274.25 323.984375 268.210938 321.429688 C 262.378906 318.964844 257.144531 315.433594 252.652344 310.941406 C 248.15625 306.449219 244.628906 301.210938 242.164062 295.382812 C 241.941406 294.859375 241.730469 294.335938 241.53125 293.808594 L 231.320312 293.808594 L 234.796875 279.820312 L 238.4375 279.820312 C 238.355469 278.664062 238.3125 277.496094 238.3125 276.324219 C 238.3125 275.152344 238.355469 273.988281 238.4375 272.828125 L 231.320312 272.828125 L 234.796875 258.839844 L 241.53125 258.839844 C 241.730469 258.3125 241.941406 257.789062 242.164062 257.265625 C 244.628906 251.4375 248.15625 246.203125 252.652344 241.707031 C 257.144531 237.214844 262.378906 233.683594 268.210938 231.21875 C 274.25 228.664062 280.664062 227.367188 287.269531 227.367188 C 293.875 227.367188 300.285156 228.664062 306.328125 231.21875 C 312.15625 233.683594 317.390625 237.214844 321.886719 241.707031 L 311.996094 251.597656 C 305.390625 244.992188 296.609375 241.355469 287.269531 241.355469 C 274.351562 241.355469 263.050781 248.394531 256.992188 258.839844 Z M 281.921875 202.273438 C 241.023438 202.273438 207.871094 235.425781 207.871094 276.324219 C 207.871094 317.222656 241.023438 350.375 281.921875 350.375 C 322.820312 350.375 355.972656 317.222656 355.972656 276.324219 C 355.972656 235.425781 322.820312 202.273438 281.921875 202.273438 " fill-opacity="1" fill-rule="nonzero"/></g></svg>